<?xml version="1.0" standalone="no"?>
<!DOCTYPE svg PUBLIC "-//W3C//DTD SVG 20010904//EN"
 "http://www.w3.org/TR/2001/REC-SVG-20010904/DTD/svg10.dtd">
<svg version="1.0" xmlns="http://www.w3.org/2000/svg"
 width="96.000000pt" height="96.000000pt" viewBox="0 0 96.000000 96.000000"
 preserveAspectRatio="xMidYMid meet">
<metadata>
Created by potrace 1.11, written by Peter Selinger 2001-2013
</metadata>
<g transform="translate(0.000000,96.000000) scale(0.100000,-0.100000)"
fill="#000000" stroke="none">
<path d="M385 920 c-19 -5 15 -8 90 -8 75 0 109 3 90 8 -16 4 -57 8 -90 8 -33
0 -73 -4 -90 -8z"/>
<path d="M262 868 c4 -10 61 -14 234 -15 204 -2 227 -1 210 12 -27 20 -450 22
-444 3z"/>
<path d="M282 808 c4 -10 57 -14 210 -16 177 -2 207 0 212 13 5 13 -21 15
-210 15 -168 0 -215 -3 -212 -12z"/>
<path d="M107 735 c-5 -10 0 -15 14 -15 12 0 19 5 17 12 -6 18 -25 20 -31 3z"/>
<path d="M310 735 c0 -13 27 -15 179 -15 150 0 180 2 185 15 5 13 -19 15 -179
15 -158 0 -185 -2 -185 -15z"/>
<path d="M780 736 c0 -12 10 -16 36 -16 45 0 42 24 -4 28 -24 2 -32 -1 -32
-12z"/>
<path d="M77 683 c-17 -16 -4 -23 43 -23 40 0 48 3 44 15 -6 15 -74 22 -87 8z"/>
<path d="M332 678 c4 -10 47 -14 161 -16 135 -2 157 0 157 13 0 13 -23 15
-161 15 -124 0 -160 -3 -157 -12z"/>
<path d="M757 683 c-18 -17 -1 -23 63 -23 58 0 68 3 64 15 -5 11 -22 15 -63
15 -32 0 -61 -3 -64 -7z"/>
<path d="M50 610 c0 -6 30 -10 70 -10 40 0 70 4 70 10 0 6 -30 10 -70 10 -40
0 -70 -4 -70 -10z"/>
<path d="M360 610 c0 -6 50 -10 129 -10 76 0 132 4 136 10 4 6 -42 10 -129 10
-84 0 -136 -4 -136 -10z"/>
<path d="M725 610 c-4 -6 28 -10 90 -10 62 0 94 4 90 10 -3 6 -44 10 -90 10
-46 0 -87 -4 -90 -10z"/>
<path d="M37 545 c-6 -13 7 -15 89 -15 72 0 95 3 92 13 -3 8 -33 13 -90 15
-70 2 -87 0 -91 -13z"/>
<path d="M382 548 c3 -9 37 -14 111 -16 91 -2 107 0 107 13 0 13 -18 15 -111
15 -84 0 -110 -3 -107 -12z"/>
<path d="M697 553 c-19 -18 3 -23 108 -23 96 0 115 3 115 15 0 12 -19 15 -108
15 -60 0 -112 -3 -115 -7z"/>
<path d="M30 485 c0 -12 19 -15 110 -15 93 0 109 2 104 15 -5 12 -27 15 -110
15 -86 0 -104 -3 -104 -15z"/>
<path d="M403 488 c2 -9 29 -13 87 -13 58 0 85 4 88 13 3 9 -19 12 -88 12 -69
0 -91 -3 -87 -12z"/>
<path d="M666 485 c-5 -13 13 -15 124 -15 109 0 130 2 130 15 0 22 -245 22
-254 0z"/>
<path d="M40 415 c0 -12 19 -15 115 -15 96 0 115 3 115 15 0 12 -19 15 -115
15 -96 0 -115 -3 -115 -15z"/>
<path d="M433 418 c2 -8 23 -13 57 -13 34 0 55 5 58 13 3 9 -13 12 -58 12 -45
0 -61 -3 -57 -12z"/>
<path d="M636 415 c-5 -13 15 -15 139 -15 122 0 145 2 145 15 0 22 -275 22
-284 0z"/>
<path d="M50 355 c0 -13 21 -15 125 -15 106 0 124 2 119 15 -5 12 -29 15 -125
15 -99 0 -119 -3 -119 -15z"/>
<path d="M452 358 c7 -20 64 -22 71 -4 5 13 -2 16 -34 16 -28 0 -39 -4 -37
-12z"/>
<path d="M617 363 c-19 -19 5 -23 137 -23 119 0 145 3 150 15 5 13 -15 15
-138 15 -78 0 -146 -3 -149 -7z"/>
<path d="M72 298 c3 -9 40 -14 126 -16 104 -2 122 0 122 13 0 13 -20 15 -126
15 -96 0 -125 -3 -122 -12z"/>
<path d="M476 295 c4 -8 10 -15 15 -15 5 0 9 7 9 15 0 8 -7 15 -15 15 -9 0
-12 -6 -9 -15z"/>
<path d="M587 303 c-20 -19 6 -23 142 -23 123 0 150 3 155 15 5 13 -15 15
-143 15 -81 0 -151 -3 -154 -7z"/>
<path d="M110 225 c17 -20 244 -23 238 -2 -3 8 -40 13 -128 15 -109 2 -122 1
-110 -13z"/>
<path d="M557 233 c-19 -19 5 -23 132 -23 111 0 141 3 151 15 11 13 -5 15
-132 15 -80 0 -148 -3 -151 -7z"/>
<path d="M160 165 c18 -22 222 -22 214 0 -5 12 -28 15 -116 15 -97 0 -109 -2
-98 -15z"/>
<path d="M526 165 c-8 -22 246 -22 264 0 11 13 -4 15 -123 15 -111 0 -136 -3
-141 -15z"/>
<path d="M250 100 c20 -13 150 -13 150 0 0 6 -34 10 -82 10 -57 0 -78 -3 -68
-10z"/>
<path d="M500 100 c0 -13 180 -13 200 0 10 7 -19 10 -92 10 -66 0 -108 -4
-108 -10z"/>
<path d="M493 43 c15 -2 37 -2 50 0 12 2 0 4 -28 4 -27 0 -38 -2 -22 -4z"/>
</g>
</svg>
